# xmcd
#
# Track frame offsets: 
#        150
#        17792
#        30017
#        43365
#        56707
#        70892
#        77482
#        93232
#        105457
#        115685
#        126457
#        135457
#
# Disc length: 2342 seconds
#
# Revision: 0
# Processed by: cddbd v1.5.2PL0 Copyright (c) Steve Scherf et al.
# Submitted via: ExactAudioCopy v0.99pb3
#
DISCID=9609240c
DTITLE=Radiotones - Whiskey'd Up
DYEAR=2000
DGENRE=Blues
TTITLE0=Don't Stop
TTITLE1=Close To The Edge
TTITLE2=She's Gone
TTITLE3=Wherever I Go
TTITLE4=Can't Be Satisfied
TTITLE5=Cool It
TTITLE6=Going To See The King
TTITLE7=Nobody's Fault But Mine
TTITLE8=No More Mr Nice Guy
TTITLE9=One Side Blind
TTITLE10=Day Job
TTITLE11=Preachin' Blues
EXTD=
EXTT0=
EXTT1=
EXTT2=
EXTT3=
EXTT4=
EXTT5=
EXTT6=
EXTT7=
EXTT8=
EXTT9=
EXTT10=
EXTT11=
PLAYORDER=
